<svg xmlns="http://www.w3.org/2000/svg" viewBox="0 0 100 100">
  <defs>
    <linearGradient id="btcGold" x1="0%" y1="0%" x2="100%" y2="100%">
      <stop offset="0%" style="stop-color:#FFD700"/>
      <stop offset="50%" style="stop-color:#F7931A"/>
      <stop offset="100%" style="stop-color:#E88A00"/>
    </linearGradient>
    <linearGradient id="clawRed" x1="0%" y1="0%" x2="100%" y2="100%">
      <stop offset="0%" style="stop-color:#E63946"/>
      <stop offset="100%" style="stop-color:#9D0208"/>
    </linearGradient>
  </defs>

  <!-- Bitcoin Circle -->
  <circle cx="50" cy="50" r="42" fill="url(#btcGold)" stroke="#C77800" stroke-width="2"/>

  <!-- Bitcoin B Symbol -->
  <path d="M38 30h12c6 0 11 3 11 9 0 4-2 7-6 8 5 1 8 5 8 10 0 7-5 11-12 11H38V30zm8 6v10h5c3 0 5-2 5-5s-2-5-5-5h-5zm0 16v12h6c4 0 6-2 6-6s-2-6-6-6h-6z" fill="white"/>
  <path d="M44 25v7M44 68v7M56 25v7M56 68v7" stroke="white" stroke-width="3" stroke-linecap="round"/>

  <!-- Left Claw Pincer -->
  <path d="M8 35 Q2 45 8 55 Q12 52 14 48 Q10 45 14 42 Q12 38 8 35Z" fill="url(#clawRed)" stroke="#7D0208" stroke-width="1"/>

  <!-- Right Claw Pincer -->
  <path d="M92 35 Q98 45 92 55 Q88 52 86 48 Q90 45 86 42 Q88 38 92 35Z" fill="url(#clawRed)" stroke="#7D0208" stroke-width="1"/>

  <!-- Left Claw Arm -->
  <path d="M14 42 Q18 44 20 50 Q18 56 14 58 L14 48Z" fill="url(#clawRed)" stroke="#7D0208" stroke-width="1"/>

  <!-- Right Claw Arm -->
  <path d="M86 42 Q82 44 80 50 Q82 56 86 58 L86 48Z" fill="url(#clawRed)" stroke="#7D0208" stroke-width="1"/>
</svg>
